<svg width="511.997" height="511.997" xmlns="http://www.w3.org/2000/svg">

 <g>
  <title>background</title>
  <rect fill="none" id="canvas_background" height="402" width="582" y="-1" x="-1"/>
 </g>
 <g>
  <title>Layer 1</title>
  <g id="svg_1">
   <g id="svg_2">
    <path fill="#ff0000" id="svg_3" d="m506.76,242.828l-118.4,-125.44c-7.277,-7.718 -19.424,-8.07 -27.142,-0.787c-7.706,7.277 -8.064,19.43 -0.781,27.142l105.965,112.256l-105.965,112.269c-7.283,7.712 -6.925,19.859 0.781,27.142c3.712,3.501 8.454,5.235 13.178,5.235c5.101,0 10.195,-2.022 13.965,-6.01l118.4,-125.446c6.981,-7.404 6.981,-18.963 -0.001,-26.361z"/>
   </g>
  </g>
  <g id="svg_4">
   <g id="svg_5">
    <path fill="#ff0000" id="svg_6" d="m151.566,368.262l-105.958,-112.263l105.958,-112.262c7.277,-7.712 6.925,-19.866 -0.787,-27.142c-7.706,-7.277 -19.866,-6.925 -27.142,0.787l-118.4,125.44c-6.982,7.398 -6.982,18.963 0,26.362l118.406,125.446c3.776,4 8.864,6.016 13.965,6.016c4.723,0 9.466,-1.741 13.171,-5.242c7.719,-7.277 8.064,-19.43 0.787,-27.142z"/>
   </g>
  </g>
  <g id="svg_7">
   <g id="svg_8">
    <path fill="#ff0000" id="svg_9" d="m287.061,52.696702c-10.477,-1.587 -20.282,5.606 -21.882,16.083l-56.32,368.64c-1.6,10.483 5.6,20.282 16.083,21.882c0.986,0.147 1.958,0.218 2.925,0.218c9.325,0 17.504,-6.803 18.957,-16.301l56.32,-368.64c1.6,-10.484 -5.6,-20.282 -16.083,-21.882z"/>
   </g>
  </g>
  <g id="svg_10"/>
  <g id="svg_11"/>
  <g id="svg_12"/>
  <g id="svg_13"/>
  <g id="svg_14"/>
  <g id="svg_15"/>
  <g id="svg_16"/>
  <g id="svg_17"/>
  <g id="svg_18"/>
  <g id="svg_19"/>
  <g id="svg_20"/>
  <g id="svg_21"/>
  <g id="svg_22"/>
  <g id="svg_23"/>
  <g id="svg_24"/>
 </g>
</svg>